# xmcd
#
# Track frame offsets: 
#        182
#        13940
#        28077
#        40300
#        51832
#        62957
#        77907
#        87117
#        100890
#        112730
#        126875
#        134572
#        157142
#        167060
#        193232
#        218807
#        238965
#        255832
#        273220
#        289332
#        304225
#
# Disc length: 4323 seconds
#
# Revision: 2
# Processed by: cddbd v1.5.2PL0 Copyright (c) Steve Scherf et al.
# Submitted via: ExactAudioCopyFreeDBPlugin 1.0
#
DISCID=3710e115
DTITLE=Mick Abrahams - One
DYEAR=1996
DGENRE=Blues
TTITLE0=Driftin' Blues
TTITLE1=Do Re Mi
TTITLE2=Mystery Train
TTITLE3=13 Question Method
TTITLE4=Gnatz
TTITLE5=How Long Blues
TTITLE6=My Uncle
TTITLE7=Jesus On The Mainline
TTITLE8=Saunton Strut
TTITLE9=How Can A Poor Man Stand Such Times And Live 
TTITLE10=Just Passing By
TTITLE11=Billy The Kid
TTITLE12=Lawdy Miss Clawdy
TTITLE13=Old Mother Nicotine
TTITLE14=I Wanna Love You (Jackie Lynton)
TTITLE15=Could This Be The Woman In Your Life (Jackie Lynton)
TTITLE16=Taste For Alcohol (King Earl Boogie Band)
TTITLE17=Whenever I See Her (King Earl Boogie Band)
TTITLE18=Houdini (Paul King))
TTITLE19=Saturday Matinee (Paul King)
TTITLE20=On And On (Paul King)
EXTD=YEAR: 1996
EXTT0=
EXTT1=
EXTT2=
EXTT3=
EXTT4=
EXTT5=
EXTT6=
EXTT7=
EXTT8=
EXTT9=
EXTT10=
EXTT11=
EXTT12=
EXTT13=
EXTT14=
EXTT15=
EXTT16=
EXTT17=
EXTT18=
EXTT19=
EXTT20=
PLAYORDER=
